<!--?xml version="1.0" encoding="utf-8"?-->
<!-- Generator: Adobe Illustrator 18.0.0, SVG Export Plug-In . SVG Version: 6.00 Build 0)  -->

<svg version="1.1" id="_x31_0" xmlns="http://www.w3.org/2000/svg" xmlns:xlink="http://www.w3.org/1999/xlink" x="0px" y="0px" viewBox="0 0 512 512" style="width: 256px; height: 256px; opacity: 1;" xml:space="preserve">
<style type="text/css">
	.st0{fill:#374149;}
</style>
<g>
	<path class="st0" d="M256,0C114.617,0,0,114.614,0,256c0,141.383,114.617,256,256,256s256-114.617,256-256
		C512,114.614,397.383,0,256,0z M256,448c-105.867,0-192-86.133-192-192c0-105.871,86.133-192,192-192s192,86.129,192,192
		C448,361.867,361.867,448,256,448z" style="fill: rgb(75, 75, 75);"></path>
	<polygon class="st0" points="349.351,206.446 349.351,142.828 317.813,142.828 317.813,161.527 317.699,174.527 256.633,112.946 
		256.11,112.418 256.11,112.418 256,112.305 178.418,190.539 123.828,245.434 123.984,245.434 123.828,245.594 167.875,245.594 
		167.984,245.594 167.984,367.687 231.031,367.687 231.422,367.687 231.422,367.687 231.578,367.687 231.578,314.782 
		280.282,314.782 280.422,314.782 280.422,367.687 344.008,367.687 344.008,245.594 369.652,245.594 388.062,245.707 
		387.946,245.594 388.172,245.594 	" style="fill: rgb(75, 75, 75);"></polygon>
</g>
</svg>
