<svg height="503.90769pt" viewBox="0 0 503.90769 503.90769" width="503.90769pt" xmlns="http://www.w3.org/2000/svg"><path d="m251.953125 173.503906v-129.300781c-.015625-13.273437 5.945313-25.851563 16.226563-34.246094 10.28125-8.398437 23.792968-11.722656 36.796874-9.058593 99.375 21.015624 177.015626 98.65625 198.03125 198.03125 2.664063 13.003906-.660156 26.519531-9.054687 36.800781-8.398437 10.28125-20.972656 16.238281-34.25 16.222656h-129.300781zm0 0" fill="#c03a2b"/><path d="m173.503906 251.953125h-129.300781c-13.273437.015625-25.851563-5.941406-34.246094-16.222656-8.398437-10.28125-11.722656-23.796875-9.058593-36.800781 21.015624-99.375 98.65625-177.015626 198.03125-198.03125 13.003906-2.664063 26.519531.660156 36.800781 9.058593 10.28125 8.394531 16.238281 20.972657 16.222656 34.246094v129.300781zm0 0" fill="#c03a2b"/><path d="m503.09375 200.050781c.015625-.261719-.015625-.527343-.085938-.78125-9.40625-44.648437-30.589843-85.96875-61.355468-119.667969-33.699219-30.765624-75.015625-51.949218-119.667969-61.355468-13.003906-2.664063-26.519531.660156-36.800781 9.058594-10.28125 8.398437-16.238282 20.980468-16.222656 34.253906v129.300781l43.390624 44.769531h147.351563c21.089844-.019531 39.238281-14.902344 43.390625-35.578125zm0 0" fill="#e64c3c"/><path d="m.121094 200.050781c-.015625-.261719.011718-.527343.085937-.78125 9.402344-44.648437 30.589844-85.96875 61.351563-119.667969 33.699218-30.765624 75.019531-51.949218 119.667968-61.355468 13.007813-2.664063 26.523438.660156 36.804688 9.058594 10.28125 8.398437 16.238281 20.980468 16.21875 34.253906v129.300781l-34.710938 44.769531h-156.03125c-21.085937-.019531-39.238281-14.902344-43.386718-35.578125zm0 0" fill="#e64c3c"/><path d="m251.953125 330.402344v129.300781c.015625 13.277344-5.941406 25.851563-16.222656 34.25-10.28125 8.394531-23.796875 11.71875-36.800781 9.054687-99.375-21.015624-177.015626-98.65625-198.03125-198.03125-2.664063-13.003906.660156-26.515624 9.058593-36.796874 8.394531-10.28125 20.972657-16.242188 34.246094-16.226563h129.300781zm0 0" fill="#c03a2b"/><path d="m503.09375 304.195312c.015625.261719-.015625.527344-.085938.78125-21.015624 99.375-98.65625 177.015626-198.03125 198.03125-13.003906 2.664063-26.515624-.660156-36.796874-9.054687-10.28125-8.398437-16.242188-20.972656-16.226563-34.25v-129.300781l78.449219-78.449219h129.300781c13.132813-.023437 25.59375 5.8125 33.984375 15.914063 8.390625 10.105468 11.839844 23.421874 9.40625 36.328124zm0 0" fill="#c03a2b"/><path d="m503.09375 304.195312c.015625.261719-.015625.527344-.085938.78125-21.058593 99.355469-98.675781 176.972657-198.03125 198.03125-13.003906 2.664063-26.515624-.660156-36.796874-9.054687-10.28125-8.398437-16.242188-20.972656-16.226563-34.25v-112.640625l78.449219-78.445312h129.300781c21.089844.019531 39.238281 14.902343 43.390625 35.578124zm0 0" fill="#c03a2b"/><path d="m503.09375 304.195312c.015625.261719-.015625.527344-.085938.78125-9.40625 44.648438-30.589843 85.96875-61.355468 119.667969-33.699219 30.765625-75.015625 51.949219-119.667969 61.355469-13.003906 2.664062-26.515625-.660156-36.796875-9.058594-10.28125-8.394531-16.238281-20.972656-16.226562-34.246094v-130.34375l43.390624-43.734374h147.351563c21.089844.019531 39.238281 14.902343 43.390625 35.578124zm0 0" fill="#e64c3c"/><path d="m.121094 304.195312c-.015625.261719.011718.527344.085937.78125 9.402344 44.648438 30.589844 85.96875 61.351563 119.667969 33.699218 30.765625 75.019531 51.949219 119.667968 61.355469 13.003907 2.664062 26.519532-.660156 36.800782-9.058594 10.28125-8.394531 16.238281-20.972656 16.222656-34.246094v-112.640624l-61.4375-61.4375h-129.304688c-21.085937.019531-39.238281 14.902343-43.386718 35.578124zm0 0" fill="#e64c3c"/><path d="m.121094 304.195312c-.015625.261719.011718.527344.085937.78125 9.402344 44.648438 30.589844 85.96875 61.351563 119.667969 33.699218 30.765625 75.019531 51.949219 119.667968 61.355469 13.003907 2.664062 26.519532-.660156 36.800782-9.058594 10.28125-8.394531 16.238281-20.972656 16.222656-34.246094v-130.34375l-43.390625-43.734374h-147.351563c-21.085937.019531-39.238281 14.902343-43.386718 35.578124zm0 0" fill="#e64c3c"/><g fill="#802f34"><path d="m204.746094 213.421875c-2.300782 0-4.507813-.914063-6.136719-2.539063l-100.664063-100.667968c-3.289062-3.402344-3.242187-8.816406.105469-12.164063 3.347657-3.347656 8.761719-3.394531 12.164063-.105469l100.667968 100.664063c2.480469 2.484375 3.222657 6.214844 1.878907 9.457031-1.34375 3.242188-4.507813 5.355469-8.015625 5.355469zm0 0"/><path d="m103.5625 408.332031c-3.511719-.003906-6.675781-2.117187-8.015625-5.359375-1.34375-3.242187-.601563-6.972656 1.878906-9.457031l100.230469-100.253906c2.195312-2.199219 5.398438-3.054688 8.398438-2.25 3 .804687 5.34375 3.148437 6.148437 6.148437s-.054687 6.199219-2.25 8.398438l-100.230469 100.230468c-1.632812 1.632813-3.851562 2.546876-6.160156 2.542969zm0 0"/><path d="m399.851562 408.53125c-2.304687 0-4.515624-.914062-6.144531-2.542969l-100.664062-100.664062c-3.289063-3.40625-3.242188-8.820313.105469-12.164063 3.347656-3.347656 8.761718-3.394531 12.167968-.109375l100.664063 100.667969c2.484375 2.480469 3.230469 6.214844 1.886719 9.460938-1.34375 3.246093-4.511719 5.363281-8.023438 5.359374zm0 0"/><path d="m298.554688 213.335938c-3.507813 0-6.671876-2.113282-8.015626-5.355469-1.34375-3.242188-.601562-6.976563 1.878907-9.457031l100.882812-100.882813c3.40625-3.285156 8.816407-3.238281 12.164063.105469 3.347656 3.347656 3.394531 8.761718.105468 12.167968l-100.878906 100.90625c-1.632812 1.617188-3.839844 2.523438-6.136718 2.515626zm0 0"/><path d="m181.574219 231.90625c-1.117188.003906-2.226563-.210938-3.261719-.632812l-83.65625-33.929688c-4.441406-1.800781-6.582031-6.863281-4.78125-11.308594 1.800781-4.441406 6.863281-6.582031 11.308594-4.78125l83.65625 33.929688c3.851562 1.558594 6.058594 5.628906 5.261718 9.707031-.796874 4.078125-4.371093 7.019531-8.527343 7.015625zm0 0"/><path d="m188.996094 414.632812c-2.886719 0-5.585938-1.4375-7.203125-3.832031-1.613281-2.394531-1.929688-5.433593-.84375-8.109375l33.890625-83.621094c1.164062-2.875 3.773437-4.910156 6.84375-5.339843 3.070312-.425781 6.136718.816406 8.042968 3.261719 1.90625 2.445312 2.363282 5.71875 1.199219 8.59375l-33.886719 83.621093c-1.324218 3.277344-4.507812 5.425781-8.042968 5.425781zm0 0"/><path d="m406.074219 322.949219c-1.117188-.003907-2.222657-.21875-3.253907-.644531l-83.742187-33.929688c-3.914063-1.519531-6.175781-5.625-5.375-9.746094s4.441406-7.078125 8.636719-7.019531c1.4375 0 2.851562.351563 4.121094 1.023437l82.875 33.585938c3.863281 1.550781 6.082031 5.625 5.285156 9.710938-.796875 4.089843-4.382813 7.03125-8.546875 7.019531zm0 0"/><path d="m279.984375 190.339844c-2.886719 0-5.585937-1.433594-7.199219-3.828125-1.617187-2.394531-1.933594-5.4375-.847656-8.113281l33.976562-83.828126c1.164063-2.875 3.773438-4.910156 6.84375-5.335937 3.070313-.429687 6.136719.8125 8.042969 3.257813 1.910157 2.445312 2.367188 5.722656 1.203125 8.59375l-33.949218 83.832031c-1.332032 3.285156-4.527344 5.433593-8.070313 5.421875zm0 0"/><path d="m321.984375 231.734375c-4.15625.003906-7.730469-2.9375-8.523437-7.015625-.796876-4.078125 1.410156-8.148438 5.261718-9.707031l83.785156-33.972657c4.441407-1.804687 9.503907.335938 11.308594 4.78125 1.800782 4.441407-.339844 9.503907-4.78125 11.304688l-83.796875 33.976562c-1.03125.417969-2.136719.632813-3.253906.632813zm0 0"/><path d="m314.140625 414.5c-3.539063.003906-6.726563-2.140625-8.054687-5.421875l-34.058594-84.003906c-1.804688-4.441407.335937-9.503907 4.78125-11.308594 4.441406-1.800781 9.503906.339844 11.304687 4.78125l34.0625 84.003906c1.089844 2.675781.777344 5.71875-.835937 8.113281-1.613282 2.398438-4.3125 3.835938-7.199219 3.835938zm0 0"/><path d="m98.058594 322.550781c-4.15625.003907-7.730469-2.941406-8.523438-7.019531-.796875-4.078125 1.410156-8.144531 5.261719-9.703125l84.046875-34.0625c4.441406-1.800781 9.5.34375 11.300781 4.785156 1.800781 4.445313-.34375 9.503907-4.785156 11.304688l-84.046875 34.042969c-1.03125.421874-2.136719.640624-3.253906.652343zm0 0"/><path d="m223.402344 190.6875c-3.53125 0-6.714844-2.140625-8.042969-5.414062l-34.042969-83.875c-1.167968-2.871094-.710937-6.148438 1.195313-8.597657 1.90625-2.445312 4.972656-3.691406 8.042969-3.261719 3.074218.425782 5.683593 2.460938 6.847656 5.335938l34.019531 83.871094c1.085937 2.675781.769531 5.71875-.84375 8.113281s-4.3125 3.828125-7.199219 3.828125zm0 0"/></g><path d="m330.402344 251.605469c-.019532-8.5-6.1875-15.734375-14.578125-17.09375 6.4375-5.449219 8.078125-14.714844 3.90625-22.042969-4.261719-7.40625-13.285157-10.609375-21.261719-7.550781 2.921875-7.964844-.339844-16.875-7.714844-21.066407-7.378906-4.195312-16.703125-2.441406-22.050781 4.144532-1.476563-8.300782-8.703125-14.339844-17.132813-14.316406-8.429687.019531-15.625 6.097656-17.058593 14.40625-5.449219-6.4375-14.714844-8.082032-22.042969-3.90625-7.40625 4.261718-10.609375 13.28125-7.550781 21.261718-7.964844-2.925781-16.875.339844-21.066407 7.714844-4.195312 7.375-2.441406 16.699219 4.144532 22.050781-8.300782 1.472657-14.339844 8.699219-14.316406 17.128907.019531 8.429687 6.097656 15.628906 14.40625 17.0625-6.4375 5.449218-8.082032 14.710937-3.90625 22.039062 4.261718 7.410156 13.28125 10.613281 21.261718 7.550781-2.925781 7.964844.339844 16.875 7.714844 21.066407 7.375 4.195312 16.699219 2.441406 22.050781-4.144532 1.472657 8.300782 8.699219 14.339844 17.128907 14.316406 8.429687-.019531 15.628906-6.09375 17.0625-14.402343 5.449218 6.4375 14.710937 8.078125 22.039062 3.90625 7.410156-4.261719 10.613281-13.285157 7.550781-21.261719 7.964844 2.921875 16.875-.339844 21.066407-7.714844 4.195312-7.378906 2.441406-16.703125-4.144532-22.050781 8.355469-1.398437 14.480469-8.625 14.492188-17.097656zm0 0" fill="#5e5f62"/><path d="m277.953125 266.730469c-1.78125 3.09375-2.066406 6.828125-.773437 10.15625-3.339844-1.265625-7.074219-.949219-10.152344.859375s-5.171875 4.917968-5.691406 8.449218c-2.242188-2.746093-5.601563-4.339843-9.148438-4.335937-3.589844-.019531-6.984375 1.625-9.199219 4.449219-.578125-3.519532-2.714843-6.589844-5.8125-8.363282-3.09375-1.769531-6.824219-2.054687-10.152343-.773437 1.265624-3.339844.949218-7.074219-.863282-10.152344-1.808594-3.078125-4.914062-5.171875-8.449218-5.695312 2.75-2.238281 4.34375-5.597657 4.339843-9.144531.019531-3.589844-1.625-6.988282-4.453125-9.199219 3.519532-.582031 6.589844-2.714844 8.363282-5.8125 1.773437-3.097657 2.058593-6.824219.773437-10.15625 3.339844 1.265625 7.074219.949219 10.15625-.859375 3.078125-1.808594 5.171875-4.917969 5.691406-8.449219 2.242188 2.746094 5.601563 4.339844 9.144531 4.335937 3.589844.019532 6.988282-1.621093 9.199219-4.449218.582031 3.519531 2.714844 6.589844 5.8125 8.363281 3.097657 1.773437 6.828125 2.054687 10.15625.773437-1.265625 3.339844-.949219 7.074219.859375 10.152344 1.808594 3.082032 4.917969 5.175782 8.453125 5.695313-2.75 2.238281-4.34375 5.597656-4.339843 9.144531-.019532 3.589844 1.625 6.988281 4.453124 9.199219-3.527343.566406-6.609374 2.707031-8.367187 5.8125zm0 0" fill="#2c2f38"/></svg>